<svg width="22" height="22" viewBox="0 0 22 22" fill="none" xmlns="http://www.w3.org/2000/svg">
  <path d="M20.2038 7.00945C20.0229 6.82722 19.8077 6.68262 19.5707 6.58402C19.3336 6.48543 19.0794 6.43478 18.8227 6.43501H15.5654V3.17778C15.5654 2.65914 15.3594 2.16174 14.9927 1.795C14.6259 1.42826 14.1285 1.22223 13.6099 1.22223H3.17821C2.65957 1.22223 2.16216 1.42826 1.79543 1.795C1.42869 2.16174 1.22266 2.65914 1.22266 3.17778V13.6095C1.22488 14.1275 1.43129 14.6238 1.7971 14.9906C1.97795 15.1728 2.19312 15.3174 2.43017 15.416C2.66723 15.5146 2.92147 15.5652 3.17821 15.565H6.43543V18.8222C6.43543 19.3409 6.64146 19.8383 7.0082 20.205C7.37494 20.5718 7.87234 20.7778 8.39099 20.7778H18.8227C19.3407 20.7756 19.837 20.5692 20.2038 20.2033C20.386 20.0225 20.5306 19.8073 20.6292 19.5703C20.7278 19.3332 20.7784 19.079 20.7782 18.8222V8.39667C20.7792 8.1389 20.729 7.8835 20.6304 7.64534C20.5317 7.40718 20.3867 7.19102 20.2038 7.00945ZM3.17821 14.2633C3.09182 14.261 3.00676 14.2415 2.92804 14.2058C2.84933 14.1701 2.77855 14.119 2.71988 14.0556C2.59955 13.9332 2.5316 13.7688 2.53043 13.5972V3.17778C2.5316 3.00619 2.59955 2.84179 2.71988 2.71945C2.78009 2.65932 2.85155 2.61164 2.9302 2.57913C3.00884 2.54662 3.09312 2.52993 3.17821 2.53001H13.6099C13.7822 2.53 13.9476 2.59805 14.0701 2.71936C14.1926 2.84067 14.2622 3.00542 14.2638 3.17778V6.43501H8.3971C7.87845 6.43501 7.38105 6.64104 7.01431 7.00778C6.64758 7.37451 6.44154 7.87192 6.44154 8.39056V14.2572L3.17821 14.2633ZM19.4765 18.8222C19.4766 18.9073 19.4599 18.9916 19.4274 19.0702C19.3949 19.1489 19.3472 19.2204 19.2871 19.2806C19.1651 19.4014 19.0005 19.4695 18.8288 19.47H8.3971C8.31123 19.47 8.2262 19.4531 8.14687 19.4202C8.06753 19.3874 7.99545 19.3392 7.93473 19.2785C7.87401 19.2178 7.82585 19.1457 7.79299 19.0663C7.76012 18.987 7.74321 18.902 7.74321 18.8161V8.39667C7.7492 8.22547 7.82152 8.06331 7.94488 7.94445C8.00509 7.88432 8.07655 7.83664 8.1552 7.80413C8.23384 7.77162 8.31812 7.75493 8.40321 7.75501H18.8227C18.9961 7.75501 19.1624 7.8239 19.285 7.94653C19.4077 8.06915 19.4765 8.23547 19.4765 8.4089V18.8222Z" fill="white" />
  <path d="M14.2572 11H12.9556V12.9556H11V14.2572H12.9556V16.2189H14.2572V14.2572H16.2189V12.9556H14.2572V11Z" fill="white" />
</svg>
