<svg width="13" height="13" viewBox="0 0 13 13" fill="none" xmlns="http://www.w3.org/2000/svg">
  <path d="M12.6389 0H4.69446C4.49486 0 4.33334 0.161518 4.33334 0.361122C4.33334 0.560727 4.49486 0.722245 4.69446 0.722245H11.7672L0.105803 12.3836C-0.0352676 12.5247 -0.0352676 12.7532 0.105803 12.8942C0.176321 12.9647 0.268743 13 0.361131 13C0.453519 13 0.545907 12.9647 0.616459 12.8942L12.2778 1.23287V8.30558C12.2778 8.50518 12.4393 8.6667 12.6389 8.6667C12.8385 8.6667 13 8.50518 13 8.30558V0.361122C13 0.161518 12.8385 0 12.6389 0Z" fill="white" />
</svg>
