<svg width="31" height="12" viewBox="0 0 31 12" fill="none" xmlns="http://www.w3.org/2000/svg">
  <g clip-path="url(#clip0_301_774)">
    <path d="M30.1126 9.90357V8.48626C30.1126 8.01747 29.5079 6.87959 29.1971 6.50085C26.3847 3.07877 20.846 5.80903 21.8316 10.0929H10.0084C10.7939 6.74829 7.4857 3.99699 4.27549 5.29395C2.62013 5.96221 1.45631 7.8744 1.78907 9.65193C1.30091 9.61405 0.778962 9.43647 0.463092 9.05184C-0.417796 7.97708 0.0298273 4.53311 1.2004 3.7403C1.85326 3.2976 3.11505 3.17977 3.85743 2.85995C4.18681 2.71771 4.56855 2.33056 4.89371 2.12857C8.09042 0.149049 12.0405 -0.182554 15.7296 0.0766686C16.5969 0.137266 17.8494 0.224796 18.6264 0.591748C19.9651 1.22381 21.3215 2.37012 22.6534 3.06783C24.8028 3.42216 27.2107 3.44404 29.2909 4.13923C31.1759 4.76877 31.0687 6.80973 30.9361 8.48879C30.893 9.03669 30.6422 9.66034 30.1118 9.90442L30.1126 9.90357ZM9.97719 4.04497H13.8656L13.0979 1.21876C11.4341 1.21792 9.7745 1.45526 8.17572 1.90301C8.13096 1.95098 8.38095 2.24724 8.42994 2.31036C8.75594 2.7295 9.30153 3.43731 9.65963 3.79416C9.72889 3.86233 9.89527 4.02729 9.97719 4.04497ZM21.1982 3.72851C21.2294 3.68307 20.8097 3.42637 20.7505 3.38849C19.9735 2.89361 17.9896 1.55794 17.1831 1.462L14.4973 1.27263L15.2955 4.03655L20.8029 3.99699L21.1982 3.72851Z" fill="white" />
    <path d="M25.6733 6.20368C29.5169 5.78118 30.0532 11.5691 26.4081 11.9756C22.4276 12.42 21.9133 6.61692 25.6733 6.20368Z" fill="white" />
    <path d="M5.56904 6.20452C9.47349 5.75425 9.9853 11.5935 6.30213 11.9748C2.35713 12.3838 1.86982 6.63123 5.56904 6.20452Z" fill="white" />
  </g>
  <defs>
    <clipPath id="clip0_301_774">
      <rect width="31" height="12" fill="white" />
    </clipPath>
  </defs>
</svg>
