<svg width="21" height="18" viewBox="0 0 21 18" fill="none" xmlns="http://www.w3.org/2000/svg">
  <g clip-path="url(#clip0_301_1295)">
    <path d="M20.9624 12.4426C21.0819 13.6856 20.8732 15.1182 20.9624 16.381C20.9163 17.0841 20.0934 17.9979 19.39 17.9979H16.4702L16.5943 17.3572C16.5097 15.3077 16.7014 13.1742 16.5943 11.1351C16.5686 10.6449 16.4589 10.1802 16.3477 9.70668C17.373 9.72953 18.4154 9.57427 19.3562 10.0727C20.1872 10.5131 20.8707 11.4856 20.9624 12.4431V12.4426Z" fill="white" />
    <path d="M8.29342 8.14325C9.75307 7.99215 11.4906 8.1879 12.9656 8.18479C14.2366 8.44544 15.2722 9.60543 15.3686 10.9279C15.5219 13.0428 15.2497 15.3462 15.3681 17.4808C15.3404 17.7129 15.1661 17.8961 14.96 17.9787L6.1965 18.0005C5.90734 17.9881 5.65612 17.729 5.64535 17.4408C5.76481 15.3192 5.49308 13.0303 5.64535 10.9279C5.74635 9.53429 6.91684 8.28604 8.29291 8.14325H8.29342Z" fill="white" />
    <path d="M10.1315 0.0176618C13.0806 -0.263767 15.1267 2.90879 13.644 5.532C12.1787 8.12405 8.37659 7.91064 7.19226 5.17424C6.2084 2.89997 7.69163 0.250282 10.1315 0.0176618Z" fill="white" />
    <path d="M1.62487 17.9979C0.72201 17.8894 0.107288 17.0778 0.0503789 16.1967C-0.0152461 15.1712 -0.0183223 13.6098 0.0503789 12.5859C0.114979 11.63 0.641517 10.7306 1.42799 10.2114C2.41954 9.55714 3.53824 9.7233 4.6672 9.70616C4.55594 10.1797 4.44623 10.6444 4.42059 11.1346C4.31344 13.1737 4.50519 15.3077 4.42059 17.3567L4.54467 17.9974H1.62487V17.9979Z" fill="white" />
    <path d="M3.75896 3.45763C5.97944 3.20268 7.57085 5.48786 6.52034 7.50459C5.53801 9.39047 2.82637 9.41176 1.77483 7.56326C0.835057 5.91104 1.8789 3.67311 3.75896 3.45763Z" fill="white" />
    <path d="M16.501 3.45763C19.3413 3.13207 20.7266 6.75377 18.4841 8.4143C16.3953 9.96112 13.5637 7.92985 14.2846 5.39492C14.5655 4.40732 15.4838 3.57446 16.501 3.45763Z" fill="white" />
  </g>
  <defs>
    <clipPath id="clip0_301_1295">
      <rect width="21" height="18" fill="white" />
    </clipPath>
  </defs>
</svg>
