<svg width="28" height="29" viewBox="0 0 28 29" fill="none" xmlns="http://www.w3.org/2000/svg">
  <g clip-path="url(#clip0_301_1276)">
    <path d="M5.43234 0.0890487C8.2644 -0.160315 11.4171 0.231542 14.2848 0.0890487C16.6537 0.498718 16.5468 3.88294 14.1066 4.07887C11.4705 4.29261 8.40689 3.81169 5.80638 4.07887C4.84455 4.18574 4.11427 4.95164 4.0074 5.91348V22.1756C4.07865 23.173 4.80893 23.9567 5.80638 24.0636C8.4247 24.3486 11.5239 23.8321 14.1779 24.0636C16.6003 24.2773 16.6537 27.8753 14.1066 28.0712C11.328 27.9287 8.35346 28.2494 5.61045 28.0712C2.6359 27.8753 0.195695 25.3817 0.0175781 22.4071V5.66411C0.213507 2.77862 2.52903 0.338413 5.43234 0.0890487Z" fill="white" />
    <path d="M21.1249 16.0661H9.72537C9.6185 16.0661 9.20883 15.9058 9.08415 15.8346C7.67702 15.1399 7.65921 13.056 9.04853 12.3079C9.1554 12.2544 9.60069 12.0585 9.67194 12.0585H21.1427C20.9646 11.7913 20.6796 11.6132 20.4836 11.3639C18.9518 9.33332 21.4099 6.99999 23.3869 8.58523C24.5803 9.99235 26.3437 11.2748 27.4836 12.6819C28.1783 13.5547 28.1783 14.57 27.4836 15.4249C26.0765 16.6183 24.7941 18.3817 23.3869 19.5216C21.392 21.1247 18.9518 18.7201 20.4836 16.743C20.6796 16.4936 20.9646 16.3155 21.1427 16.0483L21.1249 16.0661Z" fill="white" />
  </g>
  <defs>
    <clipPath id="clip0_301_1276">
      <rect width="28" height="28.1247" fill="white" />
    </clipPath>
  </defs>
</svg>
