<svg width="23" height="17" viewBox="0 0 23 17" fill="none" xmlns="http://www.w3.org/2000/svg">
  <g clip-path="url(#clip0_301_1287)">
    <path d="M22.9997 16.5207C22.9015 16.6023 22.8955 16.7397 22.7991 16.827C22.7715 16.8521 22.5019 17.0006 22.484 17.0006H10.8027V0H17.6189V4.7297C17.6189 4.89217 17.9909 5.21827 18.182 5.22817L22.9997 5.23108V16.5207ZM12.6742 3.93307C11.9721 4.15668 11.9721 4.99757 12.6742 5.22118C13.5938 5.14199 14.8279 5.36269 15.7103 5.22817C16.4316 5.11869 16.4633 4.09903 15.748 3.93307H12.6742ZM12.6742 6.54832C11.9541 6.77775 11.9787 7.65183 12.712 7.84342L19.7055 7.8475C20.4891 7.71473 20.5172 6.72185 19.7462 6.54133L12.6742 6.54832ZM12.6742 9.16357C11.9541 9.393 11.9787 10.2671 12.712 10.4587L19.7055 10.4627C20.4891 10.33 20.5172 9.3371 19.7462 9.15658L12.6742 9.16357ZM12.6742 11.7794C11.9541 12.0088 11.9787 12.8829 12.712 13.0745L19.7055 13.0786C20.4891 12.9458 20.5172 11.9529 19.7462 11.7724L12.6742 11.7794Z" fill="white" />
    <path d="M9.45778 0V3.96684C6.1042 3.52078 3.35927 6.50813 4.24409 9.71037C4.85335 11.9151 7.12561 13.3668 9.45778 13.0337V17.0006H7.28316C7.261 17.0006 6.96087 16.816 6.92732 16.7793C6.61341 16.4305 6.8728 15.5296 6.72304 15.4085C6.66852 15.3642 6.1042 15.2047 5.96162 15.1464C5.69504 15.037 5.43804 14.9129 5.18223 14.7836C4.70777 15.1558 4.28064 15.9763 3.58272 15.4539C3.27001 15.2198 1.78852 13.7972 1.59142 13.5101C1.11936 12.8235 2.00777 12.4491 2.32229 11.9739C2.01556 11.5179 1.85921 10.9857 1.65732 10.482C1.05106 10.4086 0.124307 10.6782 0.0386399 9.83208C-0.00509208 9.39941 -0.0284557 7.36242 0.0620035 7.01709C0.241724 6.32936 1.13613 6.60422 1.65732 6.51862C1.85921 6.0149 2.01556 5.48265 2.32229 5.02668C1.98561 4.53228 1.07563 4.14503 1.63216 3.44274C1.93768 3.05666 3.18554 1.84366 3.58272 1.54667C4.28064 1.02432 4.70777 1.84483 5.18223 2.21694C5.43863 2.08766 5.69504 1.96362 5.96162 1.85414C6.1042 1.79533 6.66852 1.63577 6.72304 1.59209C6.88239 1.4634 6.58525 0.517693 6.96805 0.173535C6.99561 0.148494 7.26519 0 7.28316 0L9.45778 0Z" fill="white" />
    <path d="M9.45827 5.27418V6.62519C7.88752 6.17854 6.40123 7.47539 6.85053 9.0506C7.16144 10.1419 8.36557 10.6811 9.45827 10.3737V11.7247C7.09495 12.116 5.05452 10.2025 5.48046 7.87953C5.80516 6.10924 7.65268 4.94458 9.45827 5.27302V5.27418Z" fill="white" />
    <path d="M22.597 3.92316H18.9648V0.392487L22.597 3.92316Z" fill="white" />
    <path d="M8.63814 7.85623C9.52775 7.67862 9.77277 8.97605 8.93228 9.14376C8.05405 9.31904 7.78986 8.0251 8.63814 7.85623Z" fill="white" />
  </g>
  <defs>
    <clipPath id="clip0_301_1287">
      <rect width="23" height="17" fill="white" />
    </clipPath>
  </defs>
</svg>
