<svg width="22" height="20" viewBox="0 0 22 20" fill="none" xmlns="http://www.w3.org/2000/svg">
  <g clip-path="url(#clip0_343_3718)">
    <path d="M16.6459 5.83481L11.0602 11.7746C10.6247 12.587 10.3128 13.59 10.0332 14.4893C9.68516 15.6077 9.4187 16.5703 10.3681 17.4954C11.3174 18.4204 12.1122 18.0581 13.1254 17.7061C14.0017 17.4015 15.0083 17.1003 15.7103 16.4827C16.2682 15.9917 16.7663 15.3789 17.3347 14.8941V17.8355C17.3347 18.8294 16.0525 20.048 15.0965 19.9986L2.09875 19.9896C1.19543 19.9652 0 18.7821 0 17.8355V5.83481H16.6459ZM3.77906 7.51313C2.89548 7.74891 2.95996 9.03634 3.8659 9.1671L11.2997 9.16362C12.1629 8.93201 12.1734 7.72874 11.2997 7.50408L3.77972 7.51313H3.77906ZM3.77906 10.8454C2.9218 11.0353 2.95732 12.37 3.82051 12.4945C5.12515 12.6823 6.80283 12.3665 8.14695 12.4959C9.01014 12.2643 9.02066 11.061 8.14695 10.8364L3.77906 10.8454ZM3.77906 14.1777C2.96719 14.3224 2.94417 15.6307 3.73959 15.808C4.11131 15.8908 6.1765 15.8936 6.57125 15.8282C7.3989 15.6912 7.44496 14.3558 6.6127 14.177C6.25611 14.1005 4.15868 14.1102 3.77906 14.1777Z" fill="white" />
    <path d="M17.3354 4.16895H0V2.16443C0 1.21782 1.19543 0.0347171 2.09875 0.0103735L15.0965 0.00133162C16.0531 -0.0480511 17.3347 1.17052 17.3347 2.16443V4.16895H17.3354Z" fill="white" />
    <path d="M19.9342 5.06486C20.4448 5.02243 21.2968 5.97809 21.6205 6.38011C22.0106 6.86559 22.1652 7.28082 21.7659 7.83794L14.6729 15.3337L11.88 16.3916C11.5136 16.4667 11.2169 16.153 11.2879 15.7656L12.2886 12.8131L19.3276 5.36463C19.475 5.2137 19.7303 5.08086 19.9336 5.06416L19.9342 5.06486Z" fill="white" />
  </g>
  <defs>
    <clipPath id="clip0_343_3718">
      <rect width="22" height="20" fill="white" />
    </clipPath>
  </defs>
</svg>
