<svg width="85" height="85" viewBox="0 0 85 85" fill="none" xmlns="http://www.w3.org/2000/svg">
  <g clip-path="url(#clip0_301_1051)">
    <path d="M47.7952 36.4624H36.5962C36.2058 36.5003 35.8117 36.456 35.4393 36.3326C35.067 36.2091 34.7245 36.0091 34.4341 35.7455C34.1436 35.4818 33.9115 35.1603 33.7526 34.8016C33.5938 34.4429 33.5117 34.0549 33.5117 33.6626C33.5117 33.2703 33.5938 32.8824 33.7526 32.5237C33.9115 32.165 34.1436 31.8435 34.4341 31.5798C34.7245 31.3161 35.067 31.1162 35.4393 30.9927C35.8117 30.8692 36.2058 30.825 36.5962 30.8629H47.8215C48.2119 30.825 48.606 30.8692 48.9784 30.9927C49.3507 31.1162 49.6932 31.3161 49.9836 31.5798C50.2741 31.8435 50.5062 32.165 50.6651 32.5237C50.8239 32.8824 50.906 33.2703 50.906 33.6626C50.906 34.0549 50.8239 34.4429 50.6651 34.8016C50.5062 35.1603 50.2741 35.4818 49.9836 35.7455C49.6932 36.0091 49.3507 36.2091 48.9784 36.3326C48.606 36.456 48.2119 36.5003 47.8215 36.4624H47.7952Z" fill="#DDDDDD" />
    <path d="M50.2415 45.5845L44.0637 39.9851C43.5357 39.5351 42.8647 39.2879 42.1709 39.2879C41.4772 39.2879 40.8061 39.5351 40.2781 39.9851L34.1003 45.5845C33.5883 46.096 33.2931 46.7852 33.2762 47.5087C33.2592 48.2322 33.5218 48.9345 34.0093 49.4694C34.4968 50.0043 35.1717 50.3307 35.8937 50.3807C36.6157 50.4308 37.3292 50.2007 37.8859 49.7382L39.358 48.3974V61.6995C39.4255 62.3952 39.7497 63.0409 40.2672 63.5107C40.7848 63.9805 41.4588 64.2408 42.1578 64.2408C42.8568 64.2408 43.5307 63.9805 44.0483 63.5107C44.5659 63.0409 44.89 62.3952 44.9575 61.6995V48.3974L46.4297 49.7382C46.6987 50.0069 47.0194 50.2183 47.3724 50.3596C47.7254 50.5009 48.1034 50.5691 48.4835 50.5602C48.8637 50.5513 49.2381 50.4654 49.5841 50.3078C49.9301 50.1501 50.2405 49.9239 50.4966 49.6429C50.7528 49.3618 50.9493 49.0318 51.0742 48.6727C51.1992 48.3136 51.2501 47.9329 51.2238 47.5535C51.1975 47.1742 51.0946 46.8042 50.9212 46.4657C50.7479 46.1273 50.5077 45.8275 50.2153 45.5845H50.2415Z" fill="#DDDDDD" />
    <path d="M70.2464 84.1237C69.8559 84.1616 69.4618 84.1174 69.0895 83.9939C68.7171 83.8704 68.3747 83.6704 68.0842 83.4068C67.7937 83.1431 67.5616 82.8216 67.4028 82.4629C67.2439 82.1042 67.1618 81.7163 67.1618 81.324C67.1618 80.9317 67.2439 80.5437 67.4028 80.185C67.5616 79.8263 67.7937 79.5048 68.0842 79.2411C68.3747 78.9775 68.7171 78.7775 69.0895 78.654C69.4618 78.5305 69.8559 78.4863 70.2464 78.5242C72.4775 78.5242 74.6172 77.6379 76.1948 76.0603C77.7724 74.4827 78.6587 72.3429 78.6587 70.1118V14.0118C78.6587 11.7807 77.7724 9.64103 76.1948 8.0634C74.6172 6.48578 72.4775 5.59948 70.2464 5.59948H25.3716C24.9811 5.63736 24.5871 5.59314 24.2147 5.46968C23.8424 5.34621 23.4999 5.14623 23.2094 4.88256C22.919 4.6189 22.6869 4.29739 22.528 3.93869C22.3692 3.57999 22.2871 3.19203 22.2871 2.79973C22.2871 2.40744 22.3692 2.01948 22.528 1.66078C22.6869 1.30208 22.919 0.980568 23.2094 0.716905C23.4999 0.453242 23.8424 0.253254 24.2147 0.129789C24.5871 0.00632351 24.9811 -0.037889 25.3716 -8.48342e-06H70.2464C73.9604 0.00694016 77.5203 1.48542 80.1465 4.11164C82.7728 6.73787 84.2513 10.2978 84.2582 14.0118V70.1118C84.2513 73.8259 82.7728 77.3858 80.1465 80.012C77.5203 82.6383 73.9604 84.1168 70.2464 84.1237Z" fill="#DDDDDD" />
    <path d="M59.0214 84.1238H14.1466C10.4326 84.1168 6.87265 82.6384 4.24642 80.0121C1.62019 77.3859 0.141714 73.826 0.134766 70.1119L0.134766 14.0119C0.141714 10.2979 1.62019 6.73796 4.24642 4.11174C6.87265 1.48551 10.4326 0.00703171 14.1466 8.30693e-05C14.5371 -0.0377974 14.9312 0.00641507 15.3035 0.12988C15.6759 0.253346 16.0183 0.453333 16.3088 0.716997C16.5993 0.98066 16.8314 1.30217 16.9902 1.66087C17.1491 2.01957 17.2311 2.40753 17.2311 2.79983C17.2311 3.19212 17.1491 3.58008 16.9902 3.93878C16.8314 4.29748 16.5993 4.61899 16.3088 4.88265C16.0183 5.14632 15.6759 5.34631 15.3035 5.46977C14.9312 5.59324 14.5371 5.63745 14.1466 5.59957C11.9155 5.59957 9.7758 6.48587 8.19818 8.06349C6.62055 9.64112 5.73425 11.7808 5.73425 14.0119V70.1119C5.73425 72.343 6.62055 74.4827 8.19818 76.0604C9.7758 77.638 11.9155 78.5243 14.1466 78.5243H59.0214C59.4118 78.4864 59.8059 78.5306 60.1783 78.6541C60.5506 78.7776 60.893 78.9776 61.1835 79.2412C61.474 79.5049 61.7061 79.8264 61.865 80.1851C62.0238 80.5438 62.1059 80.9317 62.1059 81.3241C62.1059 81.7163 62.0238 82.1043 61.865 82.463C61.7061 82.8217 61.474 83.1432 61.1835 83.4069C60.893 83.6705 60.5506 83.8705 60.1783 83.994C59.8059 84.1175 59.4118 84.1617 59.0214 84.1238Z" fill="#DDDDDD" />
    <path d="M19.7725 16.8247H14.1467C13.451 16.7572 12.8053 16.4331 12.3355 15.9155C11.8657 15.398 11.6055 14.724 11.6055 14.025C11.6055 13.326 11.8657 12.652 12.3355 12.1344C12.8053 11.6169 13.451 11.2927 14.1467 11.2253H19.7725C20.4682 11.2927 21.1139 11.6169 21.5837 12.1344C22.0535 12.652 22.3138 13.326 22.3138 14.025C22.3138 14.724 22.0535 15.398 21.5837 15.9155C21.1139 16.4331 20.4682 16.7572 19.7725 16.8247Z" fill="#DDDDDD" />
    <path d="M53.4224 16.8247C53.0542 16.8282 52.689 16.7587 52.3479 16.6202C52.0068 16.4817 51.6965 16.277 51.4349 16.0179C51.1734 15.7588 50.9658 15.4505 50.8241 15.1106C50.6824 14.7708 50.6095 14.4063 50.6095 14.0382C50.6043 13.4807 50.7648 12.9343 51.0707 12.4683C51.3766 12.0023 51.8141 11.6377 52.3276 11.4207C52.8411 11.2038 53.4075 11.1443 53.9549 11.2499C54.5022 11.3554 55.0059 11.6212 55.4019 12.0135C55.7979 12.4059 56.0685 12.907 56.1791 13.4534C56.2898 13.9997 56.2357 14.5666 56.0236 15.0821C55.8115 15.5977 55.451 16.0385 54.9878 16.3488C54.5247 16.6591 53.9798 16.8247 53.4224 16.8247Z" fill="#DDDDDD" />
    <path d="M61.8345 16.8247C61.4663 16.8282 61.1012 16.7587 60.76 16.6202C60.4189 16.4817 60.1086 16.277 59.8471 16.0179C59.5855 15.7588 59.3779 15.4505 59.2362 15.1106C59.0945 14.7708 59.0216 14.4063 59.0216 14.0382C59.0164 13.4807 59.1769 12.9343 59.4828 12.4683C59.7887 12.0023 60.2262 11.6377 60.7397 11.4207C61.2532 11.2038 61.8196 11.1443 62.367 11.2499C62.9143 11.3554 63.418 11.6212 63.814 12.0135C64.21 12.4059 64.4806 12.907 64.5913 13.4534C64.7019 13.9997 64.6478 14.5666 64.4357 15.0821C64.2236 15.5977 63.8631 16.0385 63.4 16.3488C62.9368 16.6591 62.3919 16.8247 61.8345 16.8247Z" fill="#DDDDDD" />
    <path d="M70.2466 16.8247C69.8785 16.8282 69.5133 16.7587 69.1721 16.6202C68.831 16.4817 68.5207 16.277 68.2592 16.0179C67.9976 15.7588 67.79 15.4505 67.6483 15.1106C67.5066 14.7708 67.4337 14.4063 67.4337 14.0382C67.4285 13.4807 67.589 12.9343 67.8949 12.4683C68.2008 12.0023 68.6383 11.6377 69.1518 11.4207C69.6653 11.2038 70.2317 11.1443 70.7791 11.2499C71.3264 11.3554 71.8301 11.6212 72.2261 12.0135C72.6222 12.4059 72.8927 12.907 73.0034 13.4534C73.114 13.9997 73.0599 14.5666 72.8478 15.0821C72.6357 15.5977 72.2752 16.0385 71.8121 16.3488C71.3489 16.6591 70.8041 16.8247 70.2466 16.8247Z" fill="#DDDDDD" />
  </g>
  <defs>
    <clipPath id="clip0_301_1051">
      <rect width="84.1237" height="84.1237" fill="white" transform="translate(0.134766)" />
    </clipPath>
  </defs>
</svg>
